# Blender v2.79 (sub 0) OBJ File: ''
# www.blender.org
mtllib Hexlowpoly.mtl
o Lowpoly_Hex
v 0.500000 0.866025 -0.048978
v -0.500000 0.866026 -0.048978
v -0.500000 0.866026 0.048978
v 0.500000 0.866025 0.048978
v -1.000000 0.000000 -0.048978
v -1.000000 -0.000000 0.048978
v -0.500000 -0.866025 -0.048978
v -0.500000 -0.866025 0.048978
v 0.500000 -0.866025 -0.048978
v 0.500000 -0.866025 0.048978
v 1.000000 0.000000 -0.048978
v 1.000000 -0.000000 0.048978
v 0.000000 0.000000 -0.048978
v 0.000000 -0.000000 0.048978
vt 0.640039 0.661200
vt 0.639994 0.336250
vt 0.671825 0.336246
vt 0.671870 0.661196
vt 0.639948 0.011301
vt 0.671779 0.011296
vt 0.579711 0.986151
vt 0.579666 0.661200
vt 0.611496 0.661196
vt 0.611542 0.986146
vt 0.579621 0.336250
vt 0.611451 0.336246
vt 0.579576 0.011300
vt 0.611406 0.011295
vt 0.640085 0.986150
vt 0.671915 0.986145
vt 0.026718 0.752028
vt 0.155534 0.528898
vt 0.284363 0.752021
vt 0.155547 0.975151
vt 0.413192 0.975144
vt 0.542008 0.752013
vt 0.413179 0.528890
vt 0.155360 0.489655
vt 0.026344 0.266208
vt 0.284363 0.266201
vt 0.155348 0.042753
vt 0.413367 0.042746
vt 0.542382 0.266194
vt 0.413378 0.489648
vn 0.0000 1.0000 0.0000
vn -0.8660 0.5000 0.0000
vn -0.8660 -0.5000 0.0000
vn 0.0000 -1.0000 0.0000
vn 0.8660 -0.5000 0.0000
vn 0.8660 0.5000 0.0000
vn 0.0000 0.0000 -1.0000
vn 0.0000 -0.0000 1.0000
usemtl initialShadingGroup
s off
f 1/1/1 2/2/1 3/3/1 4/4/1
f 2/2/2 5/5/2 6/6/2 3/3/2
f 5/7/3 7/8/3 8/9/3 6/10/3
f 7/8/4 9/11/4 10/12/4 8/9/4
f 9/11/5 11/13/5 12/14/5 10/12/5
f 11/15/6 1/1/6 4/4/6 12/16/6
s 1
f 2/17/7 1/18/7 13/19/7
f 5/20/7 2/17/7 13/19/7
f 7/21/7 5/20/7 13/19/7
f 9/22/7 7/21/7 13/19/7
f 11/23/7 9/22/7 13/19/7
f 1/18/7 11/23/7 13/19/7
f 4/24/8 3/25/8 14/26/8
f 3/25/8 6/27/8 14/26/8
f 6/27/8 8/28/8 14/26/8
f 8/28/8 10/29/8 14/26/8
f 10/29/8 12/30/8 14/26/8
f 12/30/8 4/24/8 14/26/8
